<svg xmlns="http://www.w3.org/2000/svg" xmlns:svg="http://www.w3.org/2000/svg" xmlns:xlink="http://www.w3.org/1999/xlink" id="svg2" width="70" height="115" version="1.1"><defs id="defs4"><linearGradient id="linearGradient4290"><stop id="stop4292" offset="0" style="stop-color:#000;stop-opacity:1"/><stop id="stop4294" offset="1" style="stop-color:#000;stop-opacity:0"/></linearGradient><linearGradient id="linearGradient4417"><stop id="stop4419" offset="0" style="stop-color:#000;stop-opacity:1"/><stop id="stop4421" offset="1" style="stop-color:#245573;stop-opacity:1"/></linearGradient><filter id="filter4377" width="1.5" height="1.5" x="-.25" y="-.25" color-interpolation-filters="sRGB"><feGaussianBlur id="feGaussianBlur4379" result="result8" stdDeviation="78.557"/><feTurbulence id="feTurbulence4381" baseFrequency="0.03 0.03" numOctaves="8" result="result7" seed="77" type="fractalNoise"/><feColorMatrix id="feColorMatrix4383" result="result5" values="1 0 0 0 0 0 1 0 0 0 0 0 1 0 0 0 0 0 1.6 -0.6"/><feComposite id="feComposite4385" in="result7" in2="result8" operator="in" result="result6"/><feDisplacementMap id="feDisplacementMap4387" in="result5" in2="result6" result="result4" scale="60" xChannelSelector="A" yChannelSelector="A"/><feConvolveMatrix id="feConvolveMatrix4389" divisor="2" kernelMatrix="2 0 0 0 4 0 0 0 -2" order="3 3" result="result9" targetX="2" targetY="2"/><feComposite id="feComposite4391" in="result9" in2="SourceGraphic" operator="atop" result="result10"/><feBlend id="feBlend4393" in2="result10" mode="darken" result="fbSourceGraphic"/><feGaussianBlur id="feGaussianBlur4395" in="fbSourceGraphic" result="result0" stdDeviation="5"/><feSpecularLighting id="feSpecularLighting4397" in="result0" lighting-color="#f2d76c" result="result1" specularConstant="1" specularExponent="25" surfaceScale="5"><feDistantLight id="feDistantLight4399" azimuth="235" elevation="60"/></feSpecularLighting><feComposite id="feComposite4401" in="result1" in2="fbSourceGraphic" operator="in" result="result2"/><feComposite id="feComposite4403" in="fbSourceGraphic" in2="result2" k1="0" k2="1" k3="1" k4="0" operator="arithmetic" result="result4"/></filter><linearGradient id="linearGradient4296" x1="389.969" x2="395.626" y1="1236.917" y2="1241.867" gradientUnits="userSpaceOnUse" xlink:href="#linearGradient4290"/><linearGradient id="linearGradient4339" x1="389.969" x2="395.626" y1="1236.917" y2="1241.867" gradientUnits="userSpaceOnUse" xlink:href="#linearGradient4290"/><linearGradient id="linearGradient4353" x1="389.969" x2="395.626" y1="1236.917" y2="1241.867" gradientUnits="userSpaceOnUse" xlink:href="#linearGradient4290"/></defs><metadata id="metadata7"/><path style="fill:#000;stroke:none" id="path5986" d="M 65,0 55,5 50,10 35,5 25,5 10,10 0,25 l 0,15 10,10 15,5 -15,5 -5,5 15,5 -20,15 0,10 10,15 20,5 10,0 15,-5 L 65,95 65,85 50,70 25,60 40,55 55,45 l 5,-5 0,-15 -8,-12 13,2 5,0 z M 30,10 40,15 45,30 40,45 30,50 20,45 15,30 20,15 z m -5,65 15,5 10,10 0,10 -5,10 -20,-5 -10,-10 0,-10 z"/></svg>