<svg xmlns="http://www.w3.org/2000/svg" xmlns:svg="http://www.w3.org/2000/svg" xmlns:xlink="http://www.w3.org/1999/xlink" id="svg2" width="2420" height="145.003" version="1.1"><defs id="defs4"><linearGradient id="linearGradient4290"><stop style="stop-color:#000;stop-opacity:1" id="stop4292" offset="0"/><stop style="stop-color:#000;stop-opacity:0" id="stop4294" offset="1"/></linearGradient><linearGradient id="linearGradient4417"><stop style="stop-color:#000;stop-opacity:1" id="stop4419" offset="0"/><stop style="stop-color:#245573;stop-opacity:1" id="stop4421" offset="1"/></linearGradient><filter id="filter4377" width="1.5" height="1.5" x="-.25" y="-.25" color-interpolation-filters="sRGB"><feGaussianBlur id="feGaussianBlur4379" result="result8" stdDeviation="78.557"/><feTurbulence id="feTurbulence4381" baseFrequency="0.03 0.03" numOctaves="8" result="result7" seed="77" type="fractalNoise"/><feColorMatrix id="feColorMatrix4383" result="result5" values="1 0 0 0 0 0 1 0 0 0 0 0 1 0 0 0 0 0 1.6 -0.6"/><feComposite id="feComposite4385" in="result7" in2="result8" operator="in" result="result6"/><feDisplacementMap id="feDisplacementMap4387" in="result5" in2="result6" result="result4" scale="60" xChannelSelector="A" yChannelSelector="A"/><feConvolveMatrix id="feConvolveMatrix4389" divisor="2" kernelMatrix="2 0 0 0 4 0 0 0 -2" order="3 3" result="result9" targetX="2" targetY="2"/><feComposite id="feComposite4391" in="result9" in2="SourceGraphic" operator="atop" result="result10"/><feBlend id="feBlend4393" in2="result10" mode="darken" result="fbSourceGraphic"/><feGaussianBlur id="feGaussianBlur4395" in="fbSourceGraphic" result="result0" stdDeviation="5"/><feSpecularLighting id="feSpecularLighting4397" in="result0" lighting-color="#f2d76c" result="result1" specularConstant="1" specularExponent="25" surfaceScale="5"><feDistantLight id="feDistantLight4399" azimuth="235" elevation="60"/></feSpecularLighting><feComposite id="feComposite4401" in="result1" in2="fbSourceGraphic" operator="in" result="result2"/><feComposite id="feComposite4403" in="fbSourceGraphic" in2="result2" k1="0" k2="1" k3="1" k4="0" operator="arithmetic" result="result4"/></filter><linearGradient id="linearGradient4296" x1="389.969" x2="395.626" y1="1236.917" y2="1241.867" gradientUnits="userSpaceOnUse" xlink:href="#linearGradient4290"/><linearGradient id="linearGradient4339" x1="389.969" x2="395.626" y1="1236.917" y2="1241.867" gradientUnits="userSpaceOnUse" xlink:href="#linearGradient4290"/><linearGradient id="linearGradient4353" x1="389.969" x2="395.626" y1="1236.917" y2="1241.867" gradientUnits="userSpaceOnUse" xlink:href="#linearGradient4290"/></defs><metadata id="metadata7"/><g id="layer1" transform="translate(550,-1907.3592)"><path style="fill:#000;stroke:none" id="path5930" d="m -30,1912.3662 10,10 0,80 -10,10 55,-0.01 20,-5 10,-20 -10,-20 -20,-4.993 15,-5 10,-20 -10,-20 -25,-5 z m 30,5 15,0 10,5 5,15 -5,15 -10,5 -20,0 0,-35 z m -5,44.996 20,5.004 15,4.993 5,15 -5,15 -10,5 -20,0.01 -5,-5 z"/><path style="fill:#000;stroke:none" id="path5932" d="m 75,1942.3662 -15,10 10,10 5,-10 15,-5 5,10 0,10 -35,10 0,15 10,20 20,-5 5,-5 10,10 15,-5 0,-5 -10,0 0,-50 -20,-10 z m 20,30 0,20 -10,10 -10,-10 0,-9.9932 z"/><path style="fill:#000;stroke:none" id="path5934" d="m 170,1962.3662 10,-10 -10,-10 -20,0 -15,5 -5,15 5,10 35,20 c 0.76998,5.1653 -1.52251,6.5225 -5,10 l -15,5 -10,-5.007 -5,-14.993 -10,10 10,10 15,5 25,-5 10,-20 -5,-10 -35,-15 0,-10 10,-5 10,0 z"/><path style="fill:#000;stroke:none" id="path5936" d="m 235,1952.3662 25,-10 0,60 10,10 -35,0 10,-10 0,-45 z"/><path style="fill:#000;stroke:none" id="path5940" d="m 335,1907.3662 -25,10 10,5 0,25.0068 -10,-5.0068 -10,0 -15,5 -10,20 0,20 10,20 15,5 10,0 15,-5 10,5 10,0 -10,-10 0,-15 0,-20 z m -30,40 10,5 5,10 0,30 -5,10 -10,5 -10,-5 -5,-25 5,-25 z"/><path id="path5942" d="m 545,1942.3592 -15,5 -10,20 0,20 10,20 15,5 10,0 15,-5 10,-20 0,-20 -10,-20 -15,-5 -10,0 z m 5,5 10,5 5,25 -5,25 -10,5 -10,-5 -5,-25 5,-25 10,-5 z" style="fill:#000;stroke:none"/><path style="fill:#000;stroke:none" id="path5944" d="m -550,1912.363 10,10 0,80 -10,10 35,0.01 -10,-10.0068 0,-40.004 15,5.014 20,39.9997 5,5 20,4e-4 -25,-45.0001 -10,-5.0003 20,-5.0065 10,-20 -10,-20 -25,-5 z m 30,5 15,0 10,5 5,15 -5,15 -10,5 -20,0 0,-35 z"/><path style="fill:#000;stroke:none" id="path5946" d="m -405,1942.3593 10,10 0,90 -10,10 35,0 -10,-10 0,-33.3437 10,3.3437 10,0 15,-5 10,-20 0,-20 -10,-20 -15,-5 -10,0 -15,5.0069 -10,-5 z m 40,5 10,5 5,25 -5,25 -10,5 -10,-5 -5,-9.9931 0,-30 5,-10.0069 z"/><path style="fill:#000;stroke:none" id="path5948" d="m -330,1912.3632 10,4.9931 0,85 -10,10 10,0 10,0 15,0.01 -10,-10.0068 0,-34.9933 15,-15 10,0 5,5 0,45 -10,10 35,0 -10,-10 0,-45 -5,-10 -20,-5 -10,5 -10,10 0,-50.007 z"/><path id="path5950" d="m -110,1912.3798 10,4.9931 0,85 -10,10 10,0 10,0 15,0.01 -10,-10.0069 0,-95.0002 z" style="fill:#000;stroke:none"/><path id="path5952" d="m -450,1942.3662 -15,10 10,10 5,-10 15,-5 5,10 0,10 -35,10 0,15 10,20 20,-5 5,-5 10,10 15,-5 0,-5 -10,0 0,-50 -20,-10 z m 20,30 0,20 -10,10 -10,-10 0,-9.9932 z" style="fill:#000;stroke:none"/><path style="fill:#000;stroke:none" id="path5954" d="m -230,1942.3662 -15,10 10,10 5,-10 15,-5 5,10 0,10 -35,10 0,15 10,20 20,-5 5,-5 10,10 15,-5 0,-5 -10,0 0,-50 -20,-10 z m 20,30 0,20 -10,10 -10,-10 0,-9.9932 z"/><path id="path5956" d="m -155,1942.3662 -15,5 -10,20 0,20 10,20 15,5 15,0 10,-5 10,-10 -10,-5 -5,10 -10,5 -15,-5 -5,-19.9932 40,-5.0068 5,-10 -10,-20 -15,-5 z m 5,5 10,5 0,20 -25,5.0068 5,-25.0068 z" style="fill:#000;stroke:none"/><path style="fill:#000;stroke:none" id="path5958" d="m 370,1942.3662 -15,5 -10,20 0,20 10,20 15,5 15,0 10,-5 10,-10 -10,-5 -5,10 -10,5 -15,-5 -5,-19.9932 40,-5.0068 5,-10 -10,-20 -15,-5 z m 5,5 10,5 0,20 -25,5.0068 5,-25.0068 z"/><path id="path5964" d="m 480,1942.359 -25,9.9932 10,5 0,45 -10,10 35,0 -10,-10 0,-29.9932 15,-15.0068 5,0.01 5,10 15,-10.0002 -10,-15.0067 -20,5 -10,15.0069 0,-0.01 z" style="fill:#000;stroke:none"/><path id="path5966" d="m 605,1942.3282 -25,5 10,5 0,50 -10,10 10,0 10,0 15,0.031 -10,-10.0312 0,-34.9688 15,-15 10,0 5,5 0,44.9688 0,0.031 -9.96875,9.9688 -0.0312,0 0,0.031 35,0 -10,-10 0,-35 15,-15 10,0 5,5 0,45 -10,10 35,0 -10,-10 0,-45 -5,-10 -20,-5 -10,5 -10,10 -5,-10 -20,-5 -10,5 -10,10 0,-15.0312 z" style="fill:#000;stroke:none"/><path style="fill:#000;stroke:none" id="path5968" d="m 775,1947.3562 10,4.9931 0,50 -10,10 10,0 10,0 15,0.01 -10,-10.0068 0,-34.9933 15,-15 10,0 5,5 0,45 -10,10 35,0 -10,-10 0,-45 -5,-10 -20,-5 -10,5 -10,10 0,-15.007 z"/><path id="path5970" d="m 725,1942.3592 -15,10 10,10 5,-10 15,-5 5,10 0,10 -35,10 0,15 10,20 20,-5 5,-5 10,10 15,-5 0,-5 -10,0 0,-50 -20,-10 z m 20,30 0,20 -10,10 -10,-10 0,-9.9932 z" style="fill:#000;stroke:none"/><path id="path5972" d="m 885,1922.3662 0,-0.01 -15,5.003 0,15 -10,0 0,5 10,0 0,54.993 10,10.007 15,0 5,-10.004 -5,-5 -5,9.997 0,0.01 -5,-5 0,-55 15,0 0,-5 -15,0 z" style="fill:#000;stroke:none"/><path id="path5974" d="m 910,1952.3761 25,-10 0,60 10,10 -35,0 10,-10 0,-45 z" style="fill:#000;stroke:none"/><path id="path5978" d="m 1020,1942.3622 -10,10 0,90 10,10 -35,0 10,-10 0,-33.3437 -10,3.3437 -10,0 -15,-5 -10,-20 0,-20 10,-20 15,-5 10,0 15,5.0069 10,-5 z m -40,5 -10,5 -5,25 5,25 10,5 10,-5 5,-9.9931 0,-30 -5,-10.0069 z" style="fill:#000;stroke:none"/><path id="path5980" d="m 1095,2007.3585 0,-4.9961 -10,0 0,-60 -20,4.9901 5,5.0067 0,34.9933 -10,15 -10,0 -5,-5 0,-54.9931 -20,5 5,4.9931 0,45 5,10 20,5 10,-5 5,-5 0,0 10,10.0099 z" style="fill:#000;stroke:none"/><path style="fill:#000;stroke:none" id="path5982" d="m 210,1922.3662 -5,-0.01 -10,20.007 -10,0 0,5 10,0 0,54.993 10,10.007 15,0 5,-10.004 -5,-5 -5,9.997 0,0.01 -5,-5 0,-55 10,0 0,-5 -10,0 z"/><path id="path5984" d="m 1125,1942.3592 -15,5 -10,20 0,20 10,20 15,5 15,0 10,-5 10,-10 -10,-5 -5,10 -10,5 -15,-5 -5,-19.9932 40,-5.0068 5,-10 -10,-20 -15,-5 z m 5,5 10,5 0,20 -25,5.0068 5,-25.0068 z" style="fill:#000;stroke:none"/><path style="fill:#000;stroke:none" id="path5986" d="m 1375,1937.3592 -10,5 -5,5 -15,-5 -10,0 -15,5 -10,15 0,15 10,10 15,5 -15,5 -5,5 15,5 -20,15 0,10 10,15 20,5 10,0 15,-5 10,-15 0,-10 -15,-15 -25,-10 15,-5 15,-10 5,-5 0,-15 -8,-12 13,2 5,0 z m -35,10 10,5 5,15 -5,15 -10,5 -10,-5 -5,-15 5,-15 z m -5,65 15,5 10,10 0,10 -5,10 -20,-5 -10,-10 0,-10 z"/><path style="fill:#000;stroke:none" id="path5988" d="m 1410,1942.366 -25,9.9932 10,5 0,45 -10,10 35,0 -10,-10 0,-29.9932 15,-15.0068 5,0.01 5,10 15,-10.0002 -10,-15.0067 -20,5 -10,15.0069 0,-0.01 z"/><path id="path5990" d="m 1480,1942.3592 -15,5 -10,20 0,20 10,20 15,5 10,0 15,-5 10,-20 0,-20 -10,-20 -15,-5 -10,0 z m 5,5 10,5 5,25 -5,25 -10,5 -10,-5 -5,-25 5,-25 10,-5 z" style="fill:#000;stroke:none"/><path id="path5992" d="m 1590,1937.3592 -10,5 -5,5 -15,-5 -10,0 -15,5 -10,15 0,15 10,10 15,5 -15,5 -5,5 15,5 -20,15 0,10 10,15 20,5 10,0 15,-5 10,-15 0,-10 -15,-15 -25,-10 15,-5 15,-10 5,-5 0,-15 -8,-12 13,2 5,0 z m -35,10 10,5 5,15 -5,15 -10,5 -10,-5 -5,-15 5,-15 z m -5,65 15,5 10,10 0,10 -5,10 -20,-5 -10,-10 0,-10 z" style="fill:#000;stroke:none"/><path id="path5994" d="m 1600,1947.3562 10,4.9931 0,50 -10,10 10,0 10,0 15,0.01 -10,-10.0068 0,-34.9933 15,-15 10,0 5,5 0,45 -10,10 35,0 -10,-10 0,-45 -5,-10 -20,-5 -10,5 -10,10 0,-15.007 z" style="fill:#000;stroke:none"/><path style="fill:#000;stroke:none" id="path5996" d="m 1700,1942.3592 -15,10 10,10 5,-10 15,-5 5,10 0,10 -35,10 0,15 10,20 20,-5 5,-5 10,10 15,-5 0,-5 -10,0 0,-50 -20,-10 z m 20,30 0,20 -10,10 -10,-10 0,-9.9932 z"/><path style="fill:#000;stroke:none" id="path5998" d="m 1750,1947.3562 10,4.9931 0,50 -10,10 10,0 10,0 15,0.01 -10,-10.0068 0,-34.9933 15,-15 10,0 5,5 0,45 -10,10 35,0 -10,-10 0,-45 -5,-10 -20,-5 -10,5 -10,10 0,-15.007 z"/><path style="fill:#000;stroke:none" id="path6000" d="m 1855,1922.3632 0,-0.01 -15,5.003 0,15 -10,0 0,5 10,0 0,54.993 10,10.007 15,0 5,-10.004 -5,-5 -5,9.997 0,0.01 -5,-5 0,-55 15,0 0,-5 -15,0 z"/><path id="path6002" d="m 925,1937.3591 5,0 5,-10 0,-5 -10,-5 -5,0 -5,10 0,5 z" style="fill:#000;stroke:none"/><path style="fill:#000;stroke:none" id="path6004" d="m 250,1937.3591 5,0 5,-10 0,-5 -10,-5 -5,0 -5,10 0,5 z"/><path id="path6006" d="m -135,1922.3622 -5,0 -5,5 0,10 10,0 5,-5.0031 0,-5 z" style="fill:#000;stroke:none"/><path style="fill:#000;stroke:none" id="path6008" d="m -160.07024,1922.3391 -4.99978,0.047 -4.953,5.0496 0.0468,4.9998 5.04651,4.9499 9.99956,-0.093 -0.0935,-9.9996 z"/></g></svg>